<svg width="146" height="128" viewBox="0 0 146 128" fill="none" xmlns="http://www.w3.org/2000/svg">
<rect x="27" y="18" width="93" height="93" fill="#8A9AA8"/>
<g filter="url(#filter0_d_15_2934)">
<path fill-rule="evenodd" clip-rule="evenodd" d="M92.8159 41.0832C95.208 44.1398 97.5788 47.2134 99.945 50.2897C103.856 55.3729 107.761 60.4598 111.659 65.5529C115.196 70.1759 118.717 74.8114 122.252 79.4368C123.43 80.979 124.644 82.4947 125.799 84.0533C125.984 84.3016 126.029 84.7226 125.982 85.0413C125.957 85.2172 125.607 85.3465 125.426 85.4807C124.246 85.1085 123.171 84.7798 122.104 84.4304C117.716 82.9949 113.294 81.7001 108.721 80.9649C104.632 80.3072 100.525 80.0273 96.3962 80.382C93.4471 80.6357 90.4872 80.8864 87.5721 81.3747C84.8642 81.8285 82.1931 82.5342 79.5346 83.238C75.6016 84.2792 71.725 85.548 67.7664 86.477C63.7453 87.4209 59.6758 88.2182 55.5881 88.81C50.739 89.5119 45.8574 89.5215 40.966 88.9252C35.4821 88.257 30.2566 86.8172 25.3969 84.1974C23.7434 83.3057 22.1979 82.2113 20.6281 81.1722C19.8445 80.6534 19.8172 80.2933 20.4174 79.5993C25.5565 73.6573 30.6985 67.7176 35.8441 61.781C37.2457 60.164 38.67 58.5667 40.0707 56.949C41.3345 55.489 42.0977 55.2703 43.9457 55.8328C45.2359 56.2254 46.5522 56.5382 47.8255 56.9763C48.3743 57.1652 48.6712 57.0092 48.9853 56.6278C51.024 54.1508 53.0645 51.675 55.1104 49.2038C58.4662 45.1506 61.8259 41.1009 65.1859 37.0509C65.7248 36.4013 66.2449 35.7331 66.8212 35.1177C68.0226 33.8348 69.243 33.8184 70.4346 35.1394C72.5084 37.4384 74.5376 39.7774 76.5693 42.1136C78.3059 44.11 80.0283 46.1192 81.7381 48.138C82.1523 48.6267 82.4277 48.432 82.7525 48.0631" fill="#F9C806"/>
<path fill-rule="evenodd" clip-rule="evenodd" d="M87 52.6504C92.2747 59.0989 97.5789 65.5237 102.792 72.022C104.108 73.6637 105.481 74.8875 107.662 75.2526C109.615 75.5797 111.511 76.2734 113.41 76.8778C114.289 77.1575 115.103 77.6376 115.97 77.9658C116.216 78.0588 116.542 77.9367 117 77.8997C116.708 77.4792 116.588 77.2906 116.453 77.1137C111.74 70.9423 107.026 64.7713 102.311 58.6016C98.9658 54.226 95.6165 49.8539 92.2738 45.4766C91.9757 45.0861 91.7415 44.7166 91.2588 45.3144" fill="#E2E6E9"/>
<path fill-rule="evenodd" clip-rule="evenodd" d="M49.0065 83.9565C50.6773 83.8743 52.3606 83.8889 54.0164 83.6883C57.0154 83.3244 60.017 82.928 62.9821 82.3652C65.6643 81.8559 68.3043 81.1249 70.9541 80.4572C73.2747 79.8727 75.5818 79.2357 77.8972 78.6313C79.6121 78.1838 81.3292 77.7443 83.0488 77.3155C83.7173 77.1489 83.8511 76.8371 83.498 76.2397C82.8315 75.1103 82.2103 73.9554 81.5675 72.8126C80.3082 70.5734 79.0266 68.3458 77.8098 66.0843C77.635 65.7597 77.7683 65.2747 77.759 64.8639C78.1611 64.9423 78.5679 65.0038 78.9625 65.1091C79.0815 65.1409 79.1698 65.2916 79.2681 65.392C82.5649 68.7668 85.8701 72.1339 89.1465 75.5278C89.5496 75.9455 89.9451 76.0266 90.4918 76.007C93.0645 75.9155 95.6388 75.8722 98.2124 75.8008C98.476 75.7937 98.7375 75.7144 99 75.6684C98.8986 75.4042 98.8595 75.0887 98.6854 74.8837C97.4516 73.4294 96.1881 71.9999 94.9386 70.5588C91.1534 66.1932 87.372 61.8239 83.5859 57.459C78.8073 51.9498 74.0129 46.4538 69.2542 40.928C68.2531 39.7655 68.3059 39.5846 67.3091 41.0239C63.0403 47.1886 58.7379 53.3309 54.4171 59.4605C53.9593 60.1097 54.0862 60.4659 54.6491 60.9167C55.5705 61.6541 56.4724 62.4222 57.3122 63.2463C57.5584 63.4878 57.5672 63.9631 57.6849 64.331C57.3115 64.4064 56.8954 64.627 56.572 64.5346C52.4821 63.3663 48.3989 62.174 44.3332 60.928C43.7453 60.7478 43.4518 60.8696 43.1108 61.2815C41.6629 63.0308 40.2008 64.7688 38.7401 66.5076C35.6036 70.2415 32.4734 73.9807 29.3175 77.6988C28.8579 78.2403 28.892 78.6058 29.4544 78.9984C30.2149 79.5294 30.9666 80.0729 31.7111 80.6252C32.3598 81.1065 32.8107 80.9758 33.3546 80.3706C35.1543 78.3682 37.0162 76.4188 38.8786 74.4713C39.0823 74.258 39.4421 74.0878 39.7285 74.0893C39.8982 74.09 40.1597 74.4473 40.2087 74.6792C40.2605 74.9243 40.1491 75.2283 40.0396 75.4767C39.1415 77.5139 38.2335 79.5467 37.3153 81.5753C36.7693 82.782 36.8606 82.9609 38.1849 83.2226C41.76 83.9296 45.3729 84.0916 49.0065 83.9565Z" fill="#E2E6E9"/>
</g>
<defs>
<filter id="filter0_d_15_2934" x="0" y="16.1521" width="145.999" height="95.2035" filterUnits="userSpaceOnUse" color-interpolation-filters="sRGB">
<feFlood flood-opacity="0" result="BackgroundImageFix"/>
<feColorMatrix in="SourceAlpha" type="matrix" values="0 0 0 0 0 0 0 0 0 0 0 0 0 0 0 0 0 0 127 0" result="hardAlpha"/>
<feOffset dy="2"/>
<feGaussianBlur stdDeviation="10"/>
<feColorMatrix type="matrix" values="0 0 0 0 0 0 0 0 0 0 0 0 0 0 0 0 0 0 0.25 0"/>
<feBlend mode="normal" in2="BackgroundImageFix" result="effect1_dropShadow_15_2934"/>
<feBlend mode="normal" in="SourceGraphic" in2="effect1_dropShadow_15_2934" result="shape"/>
</filter>
</defs>
</svg>
