<svg width="128" height="128" viewBox="0 0 128 128" fill="none" xmlns="http://www.w3.org/2000/svg">
<path fill-rule="evenodd" clip-rule="evenodd" d="M25.3899 25.0003C19.0996 25.0003 14.0002 30.0996 14.0001 36.3899C14.0001 42.6803 19.0994 47.7797 25.3898 47.7798L101.761 47.7801C108.052 47.7802 113.151 42.6808 113.151 36.3904C113.151 30.1001 108.052 25.0007 101.762 25.0007L25.3899 25.0003Z" fill="#E2E6E9"/>
<path fill-rule="evenodd" clip-rule="evenodd" d="M14.0784 63.7698C14.0784 70.0602 19.1778 75.1596 25.4682 75.1596L101.84 75.1598C108.13 75.1598 113.229 70.0605 113.229 63.7701C113.23 57.4796 108.13 52.3801 101.84 52.3801L25.4683 52.3799C19.1778 52.3799 14.0784 57.4793 14.0784 63.7698Z" fill="#E2E6E9"/>
<path fill-rule="evenodd" clip-rule="evenodd" d="M14.0001 91.149C14.0001 97.4395 19.0995 102.539 25.3899 102.539L101.761 102.539C108.052 102.539 113.151 97.44 113.151 91.1495C113.151 84.859 108.052 79.7595 101.761 79.7595L25.39 79.7593C19.0996 79.7593 14.0002 84.8586 14.0001 91.149Z" fill="#E2E6E9"/>
<g filter="url(#filter0_d_15_2883)">
<path fill-rule="evenodd" clip-rule="evenodd" d="M37.3815 97.1706C41.144 97.0942 44.7962 96.3423 48.3044 95.0416C66.0487 88.4621 80.624 77.4745 92.5443 62.8903C95.951 58.7224 98.7965 54.174 100.176 48.8761C101.093 45.3546 100.796 42.09 98.2716 39.1726C96.5062 37.1324 94.9325 34.92 93.3496 32.7293C91.8636 30.6727 89.8639 29.5238 87.4091 29.1687C81.5842 28.3266 75.976 29.2381 70.601 31.5331C55.3 38.0664 42.3273 47.8509 31.1606 60.0868C26.7206 64.9515 23.1086 70.3166 21.6128 76.9114C20.7709 80.6215 20.8858 83.9789 23.5497 87.0013C25.056 88.7102 26.4545 90.5419 27.6924 92.4536C30.0002 96.0176 33.3478 97.2449 37.3815 97.1706Z" fill="#FEFEFE"/>
<path fill-rule="evenodd" clip-rule="evenodd" d="M37.1519 85.3544C37.0713 85.4201 36.991 85.4856 36.9102 85.551C37.8768 86.9066 38.8432 88.2621 39.8096 89.6174C39.2072 88.1287 38.3614 86.8043 37.5 85.49C37.4444 85.4053 37.2707 85.3979 37.1519 85.3544ZM56.546 82.6848C56.647 82.6213 56.7486 82.5583 56.8499 82.4948C55.8208 81.0661 54.7919 79.637 53.7627 78.2083C53.6404 78.3019 53.5179 78.3956 53.3956 78.4892L56.546 82.6848ZM91.7639 40.5935C91.6893 40.6625 91.6149 40.7314 91.5406 40.8004C92.8679 42.5399 94.1955 44.2794 95.5229 46.0189C95.6284 45.9361 95.7337 45.8536 95.8389 45.7711C94.4807 44.0451 93.1222 42.3195 91.7639 40.5935ZM44.3261 82.858C44.1628 82.9868 43.9995 83.1152 43.8362 83.2442C45.544 85.4072 47.2517 87.5703 48.9596 89.7335C49.0693 89.6461 49.1792 89.5588 49.2889 89.4716C47.6347 87.2671 45.9804 85.0626 44.3261 82.858ZM36.5507 92.2961C35.0835 90.0812 33.7354 88.0464 32.3872 86.0111L32.0739 86.2189C32.9995 88.5885 35.3906 92.0167 36.5507 92.2961ZM88.724 46.4076C88.5626 46.5289 88.4015 46.6497 88.2402 46.7708C89.8697 48.9187 91.499 51.0662 93.1286 53.2142C93.3067 53.0802 93.4847 52.9466 93.6628 52.8126C92.0164 50.6778 90.3703 48.5427 88.724 46.4076ZM69.8238 77.8164C68.4419 74.6025 65.5455 70.8425 64.3152 70.6594C66.2778 73.2099 68.051 75.513 69.8238 77.8164ZM58.3282 75.0848C58.2647 75.1985 58.2012 75.3119 58.1377 75.4256C59.8399 77.6882 61.5421 79.9508 63.2443 82.2131C63.3469 82.1402 63.4497 82.0673 63.5524 81.9944C62.079 79.7615 60.6155 77.5216 59.112 75.3089C58.9949 75.1362 58.5961 75.1552 58.3282 75.0848ZM53.7422 87.703C53.9199 87.5883 54.0978 87.4734 54.2755 87.3588C52.7781 84.9847 51.2807 82.6107 49.7834 80.2364C49.5911 80.3622 49.3989 80.4877 49.2067 80.6132C50.7186 82.9764 52.2303 85.3395 53.7422 87.703ZM82.3056 67.1177C80.7123 64.7533 79.1189 62.3888 77.4727 59.9459C76.9442 60.8292 79.7875 65.0841 82.3056 67.1177ZM87.3227 61.9028C87.5822 61.4966 87.8886 61.1388 87.8382 61.078C86.0895 58.9741 84.307 56.8983 82.5294 54.8185C82.4103 54.9191 82.2912 55.0194 82.1719 55.1202C83.841 57.3178 85.5098 59.5154 87.3227 61.9028ZM77.4213 72.202C77.5904 71.6621 77.7937 71.335 77.7112 71.228C75.9939 69.0002 74.2443 66.7974 72.5008 64.5899C72.3217 64.7322 72.1428 64.8746 71.9636 65.0169C73.7244 67.3348 75.4851 69.653 77.4213 72.202ZM90.3014 58.1122C90.46 57.002 87.3193 52.6323 85.2874 51.1376C85.1787 51.5675 85.0757 52.0956 85.2921 52.3815C86.05 53.3814 86.9143 54.3014 87.7457 55.245C88.5555 56.1634 89.3748 57.0735 90.3014 58.1122ZM70.2293 66.5706C70.0741 66.5914 69.9192 66.6124 69.764 66.6336C69.764 67.0067 69.6202 67.4685 69.787 67.7388C71.0753 69.8277 72.4022 71.8939 73.7815 73.9237C73.946 74.1659 74.4963 74.1459 74.8679 74.2472C74.9213 74.1056 74.9749 73.9635 75.0283 73.8219C73.4286 71.4047 71.829 68.9876 70.2293 66.5706ZM31.4985 81.4096C31.5153 81.478 31.5321 81.547 31.5489 81.6157C33.6318 81.1529 35.786 80.8927 37.7852 80.1912C45.082 77.6306 51.7668 73.858 58.1002 69.4578C66.9858 63.2843 75.198 56.3611 81.7859 47.6905C83.7903 45.0525 85.6055 42.2822 86.3628 38.9744C87.1666 35.463 84.9781 33.109 81.4467 33.8495C78.8604 34.3918 76.2338 34.9488 73.7859 35.909C57.5996 42.2582 44.1055 52.3597 33.1663 65.8113C30.7831 68.7423 28.8974 72.14 27.164 75.5185C25.571 78.6234 27.0716 80.9112 30.5249 81.3172C30.8484 81.3552 31.1738 81.3792 31.4985 81.4096ZM37.3814 97.1704C33.3477 97.2448 30.0004 96.0175 27.6923 92.4535C26.4546 90.5418 25.0558 88.7101 23.5496 87.0012C20.8857 83.9791 20.7711 80.6216 21.6126 76.9113C23.1085 70.3167 26.7207 64.9517 31.1604 60.087C42.3272 47.8508 55.2999 38.0663 70.6012 31.533C75.9759 29.238 81.5841 28.3268 87.409 29.1686C89.8638 29.5237 91.8635 30.6729 93.3495 32.7294C94.9324 34.9201 96.5061 37.1323 98.2715 39.1728C100.796 42.0899 101.093 45.3547 100.176 48.8762C98.7963 54.1741 95.9509 58.7223 92.5442 62.8902C80.6241 77.4744 66.0485 88.462 48.3043 95.0415C44.7961 96.3425 41.1439 97.0943 37.3814 97.1704Z" fill="#161A1D"/>
<path fill-rule="evenodd" clip-rule="evenodd" d="M42.2364 74.6977C42.0091 74.6977 41.7818 74.7027 41.5547 74.697C38.4466 74.6206 37.3769 72.9869 38.7917 70.2313C39.7018 68.4589 40.7277 66.7046 41.9587 65.1457C49.4045 55.7178 58.8154 48.8926 69.9666 44.4962C71.5667 43.8653 73.3903 43.6039 75.1211 43.5567C76.9113 43.5078 77.7052 44.7853 77.3882 46.5982C77.2856 47.1852 77.1564 47.7674 77.0393 48.3518C77.1806 48.3938 77.3222 48.4358 77.4635 48.4778C78.0348 46.9794 78.7667 45.5201 79.1415 43.9743C79.7961 41.2756 77.9315 39.4508 75.2447 40.0624C73.5701 40.4434 71.8926 40.8667 70.2762 41.4392C61.1665 44.6654 53.3691 50.0218 46.287 56.4761C41.6466 60.7045 37.5103 65.3562 34.8272 71.1337C33.8759 73.1826 34.6868 74.9695 36.8914 75.5166C38.7668 75.9821 40.5337 75.4617 42.2364 74.6977ZM31.4984 81.4097C31.174 81.3793 30.8485 81.3553 30.5249 81.3172C27.0715 80.911 25.5712 78.6235 27.1639 75.5185C28.8975 72.1398 30.7831 68.7421 33.1663 65.8114C44.1054 52.3598 57.5997 42.2583 73.7861 35.9091C76.2338 34.9489 78.8606 34.3919 81.4466 33.8496C84.978 33.109 87.1665 35.4631 86.3627 38.9745C85.6056 42.2822 83.7903 45.0524 81.7859 47.6905C75.198 56.3612 66.9859 63.2844 58.1001 69.4579C51.7669 73.8581 45.0822 77.6307 37.7851 80.1913C35.7861 80.8927 33.6318 81.1529 31.5488 81.6157C31.532 81.547 31.5152 81.4781 31.4984 81.4097Z" fill="#FEFEFE"/>
<path fill-rule="evenodd" clip-rule="evenodd" d="M70.2292 66.5706C71.8289 68.9876 73.4286 71.4046 75.0282 73.8221C74.9748 73.9637 74.9215 74.1056 74.8679 74.2471C74.4965 74.1458 73.946 74.1659 73.7814 73.924C72.4021 71.8941 71.0753 69.8279 69.787 67.739C69.6204 67.4687 69.7642 67.0069 69.7642 66.6338C69.9191 66.6126 70.0743 66.5916 70.2292 66.5706Z" fill="#FEFEFE"/>
<path fill-rule="evenodd" clip-rule="evenodd" d="M90.3014 58.1121C89.3749 57.0733 88.5558 56.1633 87.746 55.2448C86.9143 54.3014 86.0503 53.3813 85.2924 52.3815C85.0757 52.0957 85.1788 51.5676 85.2875 51.1375C87.3196 52.6323 90.4603 57.0019 90.3014 58.1121Z" fill="#FEFEFE"/>
<path fill-rule="evenodd" clip-rule="evenodd" d="M77.4213 72.2022C75.4851 69.6532 73.7244 67.335 71.9636 65.0171C72.1428 64.8747 72.3219 64.7324 72.5008 64.5898C74.2443 66.7976 75.9942 69.0001 77.7114 71.2282C77.7937 71.3349 77.5904 71.662 77.4213 72.2022Z" fill="#FEFEFE"/>
<path fill-rule="evenodd" clip-rule="evenodd" d="M87.323 61.9029C85.5101 59.5155 83.841 57.3179 82.1721 55.1203C82.2912 55.0197 82.4106 54.9192 82.5297 54.8186C84.3072 56.8984 86.0895 58.9742 87.8381 61.0781C87.8888 61.1389 87.5824 61.4967 87.323 61.9029Z" fill="#FEFEFE"/>
<path fill-rule="evenodd" clip-rule="evenodd" d="M82.3058 67.1178C79.7877 65.0843 76.9444 60.8294 77.4727 59.946C79.119 62.389 80.7125 64.7534 82.3058 67.1178Z" fill="#FEFEFE"/>
<path fill-rule="evenodd" clip-rule="evenodd" d="M53.7424 87.7029C52.2304 85.3397 50.7187 82.9763 49.2068 80.6131C49.399 80.4876 49.5913 80.3621 49.7835 80.2363C51.2809 82.6106 52.7782 84.9847 54.2756 87.3587C54.0979 87.4733 53.92 87.5882 53.7424 87.7029Z" fill="#FEFEFE"/>
<path fill-rule="evenodd" clip-rule="evenodd" d="M58.3282 75.085C58.596 75.1551 58.9948 75.1364 59.112 75.3088C60.6155 77.5215 62.079 79.7616 63.5524 81.9946C63.4496 82.0675 63.3468 82.1404 63.2443 82.2133C61.5421 79.9507 59.8399 77.6881 58.1377 75.4257C58.2012 75.312 58.2647 75.1986 58.3282 75.085Z" fill="#FEFEFE"/>
<path fill-rule="evenodd" clip-rule="evenodd" d="M69.8238 77.8164C68.0509 75.513 66.2778 73.2096 64.3152 70.6594C65.5454 70.8423 68.4418 74.6025 69.8238 77.8164Z" fill="#FEFEFE"/>
<path fill-rule="evenodd" clip-rule="evenodd" d="M88.724 46.4077C90.3704 48.5428 92.0168 50.6777 93.6629 52.8125C93.485 52.9465 93.3068 53.0804 93.1287 53.2141C91.4991 51.0663 89.8698 48.9186 88.2402 46.7709C88.4016 46.6499 88.5629 46.5288 88.724 46.4077Z" fill="#FEFEFE"/>
<path fill-rule="evenodd" clip-rule="evenodd" d="M36.5508 92.2962C35.3907 92.0167 32.9996 88.5886 32.0737 86.219L32.3873 86.0112C33.7354 88.0465 35.0835 90.0813 36.5508 92.2962Z" fill="#FEFEFE"/>
<path fill-rule="evenodd" clip-rule="evenodd" d="M44.3262 82.8582C45.9804 85.0627 47.6347 87.2672 49.289 89.4718C49.1793 89.5587 49.0693 89.6462 48.9593 89.7334C47.2517 87.5702 45.5441 85.4071 43.8362 83.2441C43.9995 83.1154 44.1628 82.9869 44.3262 82.8582Z" fill="#FEFEFE"/>
<path fill-rule="evenodd" clip-rule="evenodd" d="M91.7639 40.5938C93.1224 42.3194 94.4806 44.0453 95.8391 45.7713C95.7336 45.8538 95.6284 45.9363 95.5231 46.0191C94.1955 44.2796 92.8681 42.5401 91.5405 40.8006C91.6149 40.7316 91.6895 40.6627 91.7639 40.5938Z" fill="#FEFEFE"/>
<path fill-rule="evenodd" clip-rule="evenodd" d="M56.5459 82.685L53.3955 78.4894C53.5181 78.3958 53.6404 78.3021 53.7627 78.2085C54.7918 79.6372 55.8207 81.0661 56.8498 82.4948C56.7485 82.5583 56.6472 82.6215 56.5459 82.685Z" fill="#FEFEFE"/>
<path fill-rule="evenodd" clip-rule="evenodd" d="M37.1521 85.3545C37.2709 85.398 37.4446 85.4054 37.5002 85.4901C38.3616 86.8044 39.2073 88.1288 39.8098 89.6175C38.8434 88.2622 37.877 86.9067 36.9104 85.5512C36.9912 85.4857 37.0715 85.4202 37.1521 85.3545Z" fill="#FEFEFE"/>
<path fill-rule="evenodd" clip-rule="evenodd" d="M42.2365 74.6976C40.5338 75.4616 38.7669 75.982 36.8915 75.5164C34.6869 74.9694 33.876 73.1824 34.8273 71.1336C37.5104 65.3561 41.6467 60.7044 46.2871 56.476C53.3692 50.0217 61.1666 44.6653 70.2763 41.4391C71.8927 40.8665 73.5702 40.4433 75.2448 40.0623C77.9316 39.4507 79.7962 41.2755 79.1416 43.9742C78.7668 45.52 78.0349 46.9793 77.4636 48.4777C77.3223 48.4356 77.1807 48.3936 77.0394 48.3516C77.1565 47.7673 77.2857 47.1851 77.3883 46.598C77.7053 44.7851 76.9114 43.5077 75.1212 43.5566C73.3904 43.6038 71.5668 43.8652 69.9667 44.496C58.8155 48.8925 49.4046 55.7176 41.9588 65.1456C40.7278 66.7045 39.7019 68.4588 38.7918 70.2312C37.377 72.9867 38.4467 74.6205 41.5548 74.6968C41.7819 74.7025 42.0092 74.6976 42.2365 74.6976Z" fill="#161A1D"/>
</g>
<defs>
<filter id="filter0_d_15_2883" x="1.14844" y="10.8601" width="119.502" height="108.314" filterUnits="userSpaceOnUse" color-interpolation-filters="sRGB">
<feFlood flood-opacity="0" result="BackgroundImageFix"/>
<feColorMatrix in="SourceAlpha" type="matrix" values="0 0 0 0 0 0 0 0 0 0 0 0 0 0 0 0 0 0 127 0" result="hardAlpha"/>
<feOffset dy="2"/>
<feGaussianBlur stdDeviation="10"/>
<feColorMatrix type="matrix" values="0 0 0 0 0 0 0 0 0 0 0 0 0 0 0 0 0 0 0.2 0"/>
<feBlend mode="normal" in2="BackgroundImageFix" result="effect1_dropShadow_15_2883"/>
<feBlend mode="normal" in="SourceGraphic" in2="effect1_dropShadow_15_2883" result="shape"/>
</filter>
</defs>
</svg>
